<?xml version="1.0" encoding="UTF-8"?> <svg xmlns="http://www.w3.org/2000/svg" id="Layer_1" width="326" height="92" viewBox="0 0 326 92"><g><g><path d="m91.38,46c0,25.21-20.44,45.64-45.64,45.64S.09,71.21.09,46,20.53.36,45.74.36s45.64,20.44,45.64,45.64" fill="#85b73c"></path><g><polygon points="14.02 23.59 14.02 27.66 18.02 27.66 18.02 50.6 14.4 68.41 24.64 68.41 28.26 50.5 49.4 50.5 52.68 68.41 62.93 68.41 59.64 50.5 73.55 50.6 73.55 57.81 70.73 57.81 70.73 54.19 66.96 54.19 66.96 61.77 77.63 61.76 77.63 23.59 14.02 23.59" fill="#6b7b80"></polygon><path d="m72.53,44.61h0c-.72.09-1.28.84-1.28,1.73,0,.96.64,1.73,1.42,1.73h0c3.87,0,7.71-1.73,7.71-3.47h-7.86Z" fill="#fff"></path><path d="m70.47,37.46c.32,1.31-.83,2.46-2.14,2.14-.61-.15-1.12-.65-1.27-1.27-.32-1.31.83-2.46,2.14-2.14.61.15,1.12.65,1.27,1.27" fill="#fff"></path><path d="m59.89,27.21v19.14c-4.33,0-7.85-4.28-7.85-9.57s3.51-9.57,7.85-9.57" fill="#fff"></path></g></g><g><path d="m107.85,67.63c0,.45-.34.78-.78.78h-3.75c-.45,0-.78-.34-.78-.78V24.37c0-.45.34-.78.78-.78h3.75c.45,0,.78.34.78.78v43.25Z" fill="#85b73c"></path><path d="m150.84,23.86s-.02-.04-.03-.05-.04-.02-.05-.03c-.14-.12-.31-.19-.51-.19h-8.4c-.45,0-.78.34-.78.78v3.31c0,.45.34.78.78.78h4.3v4.3c0,.45.34.78.78.78h3.31c.45,0,.78-.34.78-.78v-8.4h0c0-.2-.08-.37-.19-.51Z" fill="#85b73c"></path><path d="m131.22,23.59c.45,0,.78.34.78.78v3.42c0,.45-.34.78-.78.78h-6.89v39.05c0,.45-.34.78-.78.78h-3.75c-.45,0-.78-.34-.78-.78V28.58h-6.84c-.45,0-.78-.34-.78-.78v-3.42c0-.45.34-.78.78-.78h19.05Z" fill="#85b73c"></path><path d="m131.25,60.18c0-.45.34-.78.78-.78h3.75c.45,0,.78.34.78.78v2.13c0,.9.73,1.62,1.62,1.62h6.16c.9,0,1.62-.73,1.62-1.62v-5.58c0-.9-.73-1.62-1.62-1.62h-6.56c-3.59,0-6.56-2.91-6.56-6.56v-4.4c0-3.64,2.97-6.56,6.56-6.56h6.67c3.59,0,6.56,2.91,6.56,6.56v1.72c0,.45-.34.78-.78.78h-3.75c-.45,0-.78-.34-.78-.78v-1.66c0-.9-.73-1.62-1.62-1.62h-5.88c-.9,0-1.62.73-1.62,1.62v4.51c0,.9.73,1.62,1.62,1.62h6.56c3.59,0,6.56,2.91,6.56,6.56v5.24c0,3.64-2.97,6.56-6.56,6.56h-6.95c-3.59,0-6.56-2.91-6.56-6.56v-1.96Z" fill="#85b73c"></path><path d="m157.13,55.19c0-.45.34-.78.78-.78h3.75c.45,0,.78.34.78.78v7.12c0,.9.73,1.62,1.62,1.62h6.16c.9,0,1.62-.73,1.62-1.62v-13.05c0-.9-.73-1.62-1.62-1.62h-6.56c-3.59,0-6.56-2.91-6.56-6.56v-11.21c0-3.64,2.97-6.56,6.56-6.56h6.67c3.59,0,6.56,2.91,6.56,6.56v4.15c0,.45-.34.78-.78.78h-3.75c-.45,0-.78-.34-.78-.78v-4.09c0-.9-.73-1.62-1.62-1.62h-5.88c-.9,0-1.62.73-1.62,1.62v11.32c0,.9.73,1.62,1.62,1.62h6.56c3.59,0,6.56,2.91,6.56,6.56v12.72c0,3.64-2.97,6.56-6.56,6.56h-6.95c-3.59,0-6.56-2.91-6.56-6.56v-6.95Z" fill="#85b73c"></path><path d="m186.32,63.42h12.83c.45,0,.78.34.78.78v3.42c0,.45-.34.78-.78.78h-17.37c-.45,0-.78-.34-.78-.78V24.37c0-.45.34-.78.78-.78h17.03c.45,0,.78.34.78.78v3.47c0,.45-.34.78-.78.78h-12.49v13.67h10.25c.45,0,.78.34.78.78v3.42c0,.45-.34.78-.78.78h-10.25v16.14Z" fill="#85b73c"></path><path d="m216.69,68.69h-6.95c-3.59,0-6.56-2.91-6.56-6.56V29.86c0-3.64,2.97-6.56,6.56-6.56h6.33c3.59,0,6.56,2.91,6.56,6.56v4.15c0,.45-.34.78-.78.78h-3.75c-.45,0-.78-.34-.78-.78v-4.09c0-.9-.73-1.62-1.62-1.62h-5.55c-.9,0-1.62.73-1.62,1.62v32.38c0,.9.73,1.62,1.62,1.62h6.16c.9,0,1.62-.73,1.62-1.62v-9.02h-3.53c-.45,0-.78-.34-.78-.78v-3.42c0-.45.34-.78.78-.78h8.07c.45,0,.78.34.78.78v13.05c0,3.64-2.97,6.56-6.56,6.56Z" fill="#85b73c"></path></g></g><g><path d="m234.39,45.29c0-.15.11-.26.26-.26h1.24c.15,0,.26.11.26.26v2.34c0,.3.24.54.54.54h2.03c.3,0,.53-.24.53-.54v-4.3c0-.3-.24-.53-.53-.53h-2.16c-1.18,0-2.16-.96-2.16-2.16v-3.69c0-1.2.98-2.16,2.16-2.16h2.19c1.18,0,2.16.96,2.16,2.16v1.36c0,.15-.11.26-.26.26h-1.24c-.15,0-.26-.11-.26-.26v-1.35c0-.29-.24-.53-.53-.53h-1.94c-.3,0-.54.24-.54.53v3.73c0,.3.24.53.54.53h2.16c1.18,0,2.16.96,2.16,2.16v4.19c0,1.2-.98,2.16-2.16,2.16h-2.29c-1.18,0-2.16-.96-2.16-2.16v-2.29Z" fill="#85b73c"></path><path d="m244.78,48h4.22c.15,0,.26.11.26.26v1.12c0,.15-.11.26-.26.26h-5.72c-.15,0-.26-.11-.26-.26v-14.24c0-.15.11-.26.26-.26h5.61c.15,0,.26.11.26.26v1.14c0,.15-.11.26-.26.26h-4.11v4.5h3.37c.15,0,.26.11.26.26v1.12c0,.15-.11.26-.26.26h-3.37v5.31Z" fill="#85b73c"></path><path d="m255.55,49.73h-2.29c-1.18,0-2.16-.96-2.16-2.16v-10.62c0-1.2.98-2.16,2.16-2.16h2.08c1.18,0,2.16.96,2.16,2.16v1.36c0,.15-.11.26-.26.26h-1.24c-.15,0-.26-.11-.26-.26v-1.35c0-.29-.24-.53-.54-.53h-1.83c-.3,0-.54.24-.54.53v10.66c0,.3.24.54.54.54h2.03c.3,0,.54-.24.54-.54v-2.97h-1.16c-.15,0-.26-.11-.26-.26v-1.12c0-.15.11-.26.26-.26h2.66c.15,0,.26.11.26.26v4.3c0,1.2-.98,2.16-2.16,2.16Z" fill="#85b73c"></path><path d="m264.09,49.73h-2.29c-1.18,0-2.16-.96-2.16-2.16v-12.43c0-.15.11-.26.26-.26h1.24c.15,0,.26.11.26.26v12.48c0,.3.24.54.54.54h2.03c.3,0,.54-.24.54-.54v-12.48c0-.15.11-.26.26-.26h1.24c.15,0,.26.11.26.26v12.43c0,1.2-.98,2.16-2.16,2.16Z" fill="#85b73c"></path><path d="m268.37,35.14c0-.15.11-.26.26-.26h4.19c1.18,0,2.16.96,2.16,2.16v4.33c0,.92-.57,1.68-1.35,2.01l1.48,5.99c.07.26-.13.26-.13.26h-1.38s-.2,0-.26-.26l-1.44-5.85h-1.77v5.85c0,.15-.11.26-.26.26h-1.24c-.15,0-.26-.11-.26-.26v-14.24Zm4.85,1.92c0-.29-.24-.53-.54-.53h-2.56v5.44h2.56c.3,0,.54-.24.54-.53v-4.37Z" fill="#85b73c"></path><path d="m276.88,36.95c0-1.2.98-2.16,2.16-2.16h2.29c1.18,0,2.16.96,2.16,2.16v10.62c0,1.2-.98,2.16-2.16,2.16h-2.29c-1.18,0-2.16-.96-2.16-2.16v-10.62Zm4.85.02c0-.29-.24-.53-.53-.53h-2.03c-.3,0-.54.24-.54.53v10.66c0,.3.24.54.54.54h2.03c.3,0,.53-.24.53-.54v-10.66Z" fill="#85b73c"></path><path d="m285.24,45.29c0-.15.11-.26.26-.26h1.24c.15,0,.26.11.26.26v2.34c0,.3.24.54.54.54h2.03c.3,0,.54-.24.54-.54v-4.3c0-.3-.24-.53-.54-.53h-2.16c-1.18,0-2.16-.96-2.16-2.16v-3.69c0-1.2.98-2.16,2.16-2.16h2.19c1.18,0,2.16.96,2.16,2.16v1.36c0,.15-.11.26-.26.26h-1.24c-.15,0-.26-.11-.26-.26v-1.35c0-.29-.24-.53-.54-.53h-1.94c-.3,0-.54.24-.54.53v3.73c0,.3.24.53.54.53h2.16c1.18,0,2.16.96,2.16,2.16v4.19c0,1.2-.98,2.16-2.16,2.16h-2.29c-1.18,0-2.16-.96-2.16-2.16v-2.29Z" fill="#85b73c"></path><path d="m236.16,68.16c0,.15-.11.26-.26.26h-1.24c-.15,0-.26-.11-.26-.26v-14.24c0-.15.11-.26.26-.26h1.24c.15,0,.26.11.26.26v14.24Z" fill="#85b73c"></path><path d="m238.91,53.67h1.22s.2,0,.28.26l3.28,9.04v-9.04c0-.15.11-.26.26-.26h1.24c.15,0,.26.11.26.26v14.24c0,.15-.11.26-.26.26h-1.12s-.2,0-.28-.26l-3.37-9v9c0,.15-.11.26-.26.26h-1.24c-.15,0-.26-.11-.26-.26v-14.24c0-.15.11-.26.26-.26Z" fill="#85b73c"></path><path d="m253.91,53.67c.15,0,.26.11.26.26v1.12c0,.15-.11.26-.26.26h-2.27v12.85c0,.15-.11.26-.26.26h-1.24c-.15,0-.26-.11-.26-.26v-12.85h-2.25c-.15,0-.26-.11-.26-.26v-1.12c0-.15.11-.26.26-.26h6.27Z" fill="#85b73c"></path><path d="m257.86,66.78h4.22c.15,0,.26.11.26.26v1.12c0,.15-.11.26-.26.26h-5.72c-.15,0-.26-.11-.26-.26v-14.24c0-.15.11-.26.26-.26h5.61c.15,0,.26.11.26.26v1.14c0,.15-.11.26-.26.26h-4.11v4.5h3.37c.15,0,.26.11.26.26v1.12c0,.15-.11.26-.26.26h-3.37v5.31Z" fill="#85b73c"></path><path d="m264.65,53.92c0-.15.11-.26.26-.26h1.24c.15,0,.26.11.26.26v12.85h4.22c.15,0,.26.11.26.26v1.12c0,.15-.11.26-.26.26h-5.72c-.15,0-.26-.11-.26-.26v-14.24Z" fill="#85b73c"></path><path d="m274.57,68.16c0,.15-.11.26-.26.26h-1.24c-.15,0-.26-.11-.26-.26v-14.24c0-.15.11-.26.26-.26h1.24c.15,0,.26.11.26.26v14.24Z" fill="#85b73c"></path><path d="m281.04,68.51h-2.29c-1.18,0-2.16-.96-2.16-2.16v-10.62c0-1.2.98-2.16,2.16-2.16h2.08c1.18,0,2.16.96,2.16,2.16v1.36c0,.15-.11.26-.26.26h-1.24c-.15,0-.26-.11-.26-.26v-1.35c0-.29-.24-.53-.54-.53h-1.83c-.3,0-.54.24-.54.53v10.66c0,.3.24.53.54.53h2.03c.3,0,.53-.24.53-.53v-2.97h-1.16c-.15,0-.26-.11-.26-.26v-1.12c0-.15.11-.26.26-.26h2.66c.15,0,.26.11.26.26v4.3c0,1.2-.98,2.16-2.16,2.16Z" fill="#85b73c"></path><path d="m286.98,66.78h4.22c.15,0,.26.11.26.26v1.12c0,.15-.11.26-.26.26h-5.72c-.15,0-.26-.11-.26-.26v-14.24c0-.15.11-.26.26-.26h5.61c.15,0,.26.11.26.26v1.14c0,.15-.11.26-.26.26h-4.11v4.5h3.37c.15,0,.26.11.26.26v1.12c0,.15-.11.26-.26.26h-3.37v5.31Z" fill="#85b73c"></path><path d="m294.03,53.67h1.22s.2,0,.28.26l3.28,9.04v-9.04c0-.15.11-.26.26-.26h1.24c.15,0,.26.11.26.26v14.24c0,.15-.11.26-.26.26h-1.12s-.2,0-.28-.26l-3.37-9v9c0,.15-.11.26-.26.26h-1.24c-.15,0-.26-.11-.26-.26v-14.24c0-.15.11-.26.26-.26Z" fill="#85b73c"></path><path d="m309.03,53.67c.15,0,.26.11.26.26v1.12c0,.15-.11.26-.26.26h-2.27v12.85c0,.15-.11.26-.26.26h-1.24c-.15,0-.26-.11-.26-.26v-12.85h-2.25c-.15,0-.26-.11-.26-.26v-1.12c0-.15.11-.26.26-.26h6.27Z" fill="#85b73c"></path><path d="m312.98,66.78h4.22c.15,0,.26.11.26.26v1.12c0,.15-.11.26-.26.26h-5.72c-.15,0-.26-.11-.26-.26v-14.24c0-.15.11-.26.26-.26h5.61c.15,0,.26.11.26.26v1.14c0,.15-.11.26-.26.26h-4.11v4.5h3.37c.15,0,.26.11.26.26v1.12c0,.15-.11.26-.26.26h-3.37v5.31Z" fill="#85b73c"></path><path d="m319.3,64.07c0-.15.11-.26.26-.26h1.24c.15,0,.26.11.26.26v2.34c0,.3.24.53.54.53h2.03c.3,0,.54-.24.54-.53v-4.3c0-.3-.24-.53-.54-.53h-2.16c-1.18,0-2.16-.96-2.16-2.16v-3.69c0-1.2.98-2.16,2.16-2.16h2.19c1.18,0,2.16.96,2.16,2.16v1.36c0,.15-.11.26-.26.26h-1.24c-.15,0-.26-.11-.26-.26v-1.35c0-.29-.24-.53-.54-.53h-1.94c-.3,0-.54.24-.54.53v3.73c0,.3.24.53.54.53h2.16c1.18,0,2.16.96,2.16,2.16v4.19c0,1.2-.98,2.16-2.16,2.16h-2.29c-1.18,0-2.16-.96-2.16-2.16v-2.29Z" fill="#85b73c"></path></g></svg> 