<?xml version="1.0" encoding="UTF-8"?> <svg xmlns="http://www.w3.org/2000/svg" id="Layer_1" width="40" height="40" viewBox="0 0 40 40"><g id="VwNj9z.tif"><path d="m3.92.49c10.73,0,21.46,0,32.19,0,.23.05.46.09.69.15,1.7.46,2.71,1.79,2.71,3.63,0,10.5,0,20.99-.01,31.49,0,.58-.13,1.2-.37,1.72-.67,1.46-1.92,2.01-3.47,2.01-10.18,0-20.36,0-30.54,0-.48,0-.96-.03-1.44-.07-1.37-.11-2.53-1.04-2.94-2.35-.1-.32-.16-.65-.25-.98,0-10.73,0-21.46,0-32.19.03-.09.08-.18.1-.28.19-1.48,1-2.44,2.4-2.92.3-.11.63-.16.94-.23Zm18.03,16.59c0-.36,0-.77,0-1.17,0-.7-.41-1.11-1.11-1.11-1.41,0-2.82,0-4.23,0-.8,0-1.2.39-1.2,1.19,0,6.04,0,12.08,0,18.11,0,.78.42,1.19,1.2,1.2,1.37,0,2.75,0,4.12,0,.82,0,1.22-.4,1.22-1.21,0-3.08,0-6.15,0-9.23,0-1.02.21-1.99.66-2.9.62-1.28,1.78-1.94,3.22-1.83,1.38.11,2.37.91,2.69,2.35.2.91.28,1.86.29,2.79.04,2.95.01,5.9.01,8.85,0,.81.38,1.19,1.18,1.19,1.41,0,2.82,0,4.23,0,.85,0,1.27-.4,1.27-1.26,0-3.19.01-6.38-.02-9.57-.02-1.57-.09-3.14-.5-4.68-.54-2.02-1.54-3.7-3.52-4.62-1.5-.69-3.09-.77-4.7-.62-1.18.11-2.31.4-3.27,1.12-.56.42-1.04.94-1.55,1.42Zm-15.85,7.97c0,2.99,0,5.97,0,8.96,0,.87.41,1.28,1.28,1.28,1.28,0,2.57,0,3.85,0,1.01,0,1.41-.4,1.41-1.41,0-2.74,0-5.49,0-8.23,0-3.19,0-6.38,0-9.57,0-.87-.42-1.29-1.28-1.29-1.33,0-2.67,0-4,0-.86,0-1.25.4-1.25,1.26,0,3,0,6,0,9Zm7.46-16.1c0-2.32-1.9-4.24-4.21-4.21-2.29.02-4.19,1.78-4.2,4.22-.01,2.31,1.91,4.2,4.19,4.2,2.31,0,4.22-1.9,4.22-4.22Z" fill="#85b73c"></path></g></svg> 