<?xml version="1.0" encoding="UTF-8"?> <svg xmlns="http://www.w3.org/2000/svg" id="Layer_1" width="80" height="60" viewBox="0 0 80 60"><g><path d="m50.15,25.25c-.91-.75-2.07-1.2-3.33-1.2-1.78,0-3.36.9-4.31,2.26-2.39-1.08-4.79-2.16-7.19-3.25.28-.71.4-1.4.38-2.1,0-.63-.13-1.23-.34-1.78,2.4-1.09,4.77-2.17,7.15-3.25.94,1.37,2.52,2.27,4.31,2.27,2.88,0,5.23-2.35,5.23-5.23s-2.35-5.23-5.23-5.23-5.23,2.35-5.23,5.23c0,.28.02.56.07.83-.03.06-.08.1-.17.14-2.42,1.09-4.84,2.19-7.25,3.29-.05.02-.1.04-.14.04-.94-.9-2.22-1.46-3.62-1.46-2.88,0-5.23,2.35-5.23,5.23,0,.92.24,1.79.66,2.54.05.1.11.2.17.3,1.66,2.67,5.37,3.25,7.76,1.21.14-.12.25-.13.41-.05,2.41,1.09,4.82,2.18,7.24,3.27.09.04.15.09.18.14-.04.27-.07.55-.07.83,0,2.88,2.35,5.23,5.23,5.23s5.23-2.35,5.23-5.23c0-1.04-.31-2.02-.84-2.83-.28-.46-.64-.86-1.06-1.2Zm-3.33-15.23c1.65,0,2.95,1.31,2.95,2.97,0,1.63-1.32,2.93-2.96,2.93-1.64,0-2.94-1.32-2.93-2.95.01-1.64,1.32-2.94,2.95-2.94Zm-16.29,14.06c-1.63.01-2.96-1.3-2.97-2.93-.01-1.65,1.3-2.98,2.93-2.99,1.63,0,2.95,1.31,2.96,2.94.01,1.63-1.3,2.97-2.92,2.98Zm19.24,5.18c0,1.66-1.31,2.97-2.97,2.97-1.63,0-2.93-1.33-2.92-2.97,0-1.64,1.32-2.93,2.96-2.93,1.62,0,2.93,1.31,2.93,2.93Z" fill="#85b73c"></path><path d="m40,42.16c-11.6,0-21.04-9.44-21.04-21.04S28.4.09,40,.09s21.04,9.44,21.04,21.04-9.44,21.04-21.04,21.04Zm0-39.87c-10.38,0-18.83,8.45-18.83,18.83s8.45,18.83,18.83,18.83,18.83-8.45,18.83-18.83S50.38,2.29,40,2.29Z" fill="#85b73c"></path></g><g><g><path d="m6.02,58.2c-.12.29-.3.54-.51.76-.22.22-.47.39-.76.51-.29.12-.6.19-.93.19h-.69c-.33,0-.64-.06-.93-.19-.29-.12-.55-.3-.76-.51-.22-.22-.39-.47-.51-.76-.12-.29-.19-.6-.19-.93v-5.23c0-.33.06-.64.19-.93.12-.29.3-.54.51-.76.22-.22.47-.39.76-.51.29-.12.6-.19.93-.19h.69c.33,0,.64.06.93.19.29.12.54.3.76.51.22.22.39.47.51.76s.19.6.19.93v.39l-.88.14v-.53c0-.22-.04-.42-.12-.61s-.19-.35-.33-.49c-.14-.14-.3-.25-.49-.33-.19-.08-.39-.12-.61-.12h-.61c-.22,0-.42.04-.61.12-.19.08-.35.19-.5.33-.14.14-.25.3-.34.49-.08.19-.12.39-.12.61v5.23c0,.22.04.42.12.61.08.19.19.35.34.5.14.14.31.25.5.33.19.08.39.12.61.12h.61c.22,0,.42-.04.61-.12.19-.08.35-.19.49-.33.14-.14.25-.31.33-.5.08-.19.12-.39.12-.61v-.53l.88.14v.39c0,.33-.06.64-.19.93Z" fill="#85b73c"></path><path d="m3.82,59.91h-.69c-.36,0-.71-.07-1.03-.21-.32-.14-.61-.33-.84-.57-.24-.24-.43-.52-.56-.84-.14-.32-.21-.66-.21-1.03v-5.23c0-.36.07-.71.21-1.03.14-.32.33-.6.56-.84.24-.24.52-.43.84-.57.32-.14.67-.21,1.03-.21h.69c.36,0,.71.07,1.03.21.32.14.6.33.84.57.24.24.43.52.56.84.14.32.21.67.21,1.03v.61l-1.38.21v-.82c0-.18-.03-.35-.1-.51-.07-.16-.16-.29-.28-.42-.12-.12-.25-.21-.42-.28-.16-.07-.32-.1-.51-.1h-.61c-.19,0-.35.03-.51.1-.16.07-.3.16-.42.28-.12.12-.21.25-.28.41-.07.15-.1.33-.1.51v5.23c0,.18.03.35.1.51.07.16.17.3.28.42.12.12.26.21.42.28.16.07.32.1.51.1h.61c.18,0,.35-.03.51-.1.16-.07.3-.16.42-.28.12-.12.21-.26.28-.42.07-.15.1-.33.1-.51v-.82l1.38.22v.6c0,.36-.07.71-.21,1.03h0c-.14.32-.33.6-.56.84-.24.24-.52.43-.84.57-.32.14-.67.21-1.03.21Zm-.69-10c-.29,0-.57.06-.84.17-.26.11-.49.27-.68.46-.19.19-.35.42-.46.68-.11.26-.17.54-.17.83v5.23c0,.29.06.58.17.83.11.26.27.49.46.68.19.19.42.35.69.46.26.11.54.17.83.17h.69c.29,0,.57-.06.83-.17.26-.11.49-.27.68-.46.19-.19.35-.42.46-.68h0c.11-.26.17-.54.17-.83v-.17l-.38-.06v.24c0,.25-.05.49-.14.71-.09.21-.22.41-.38.57-.16.17-.36.3-.57.39-.22.09-.46.14-.71.14h-.61c-.25,0-.49-.05-.71-.14-.21-.09-.41-.22-.57-.39-.16-.16-.29-.36-.39-.57-.09-.22-.14-.45-.14-.71v-5.23c0-.25.05-.49.14-.71.09-.22.22-.41.39-.57.16-.16.35-.29.57-.38.22-.09.46-.14.71-.14h.61c.25,0,.49.05.71.14.22.09.41.22.57.39.16.16.29.35.39.57.09.22.14.46.14.71v.24l.38-.06v-.18c0-.29-.06-.57-.17-.83-.11-.26-.27-.49-.46-.68-.19-.19-.42-.35-.68-.46-.26-.11-.54-.17-.83-.17h-.69Z" fill="#85b73c"></path></g><g><path d="m13.86,58.2c-.12.29-.3.54-.51.76-.22.22-.47.39-.76.51-.29.12-.6.19-.93.19h-.69c-.33,0-.64-.06-.93-.19-.29-.12-.55-.3-.76-.51-.22-.22-.39-.47-.51-.76-.12-.29-.19-.6-.19-.93v-5.23c0-.33.06-.64.19-.93.12-.29.3-.54.51-.76.22-.22.47-.39.76-.51.29-.12.6-.19.93-.19h.69c.33,0,.64.06.93.19.29.12.54.3.76.51.22.22.39.47.51.76s.19.6.19.93v5.23c0,.33-.06.64-.19.93Zm-.69-6.16c0-.22-.04-.42-.12-.61s-.19-.35-.33-.49c-.14-.14-.3-.25-.49-.33-.19-.08-.39-.12-.61-.12h-.61c-.22,0-.42.04-.61.12-.19.08-.35.19-.5.33-.14.14-.25.3-.34.49-.08.19-.12.39-.12.61v5.23c0,.22.04.42.12.61.08.19.19.35.34.5.14.14.31.25.5.33.19.08.39.12.61.12h.61c.22,0,.42-.04.61-.12.19-.08.35-.19.49-.33.14-.14.25-.31.33-.5.08-.19.12-.39.12-.61v-5.23Z" fill="#85b73c"></path><path d="m11.65,59.91h-.69c-.36,0-.71-.07-1.03-.21-.32-.14-.61-.33-.84-.57-.24-.24-.43-.52-.56-.84-.14-.32-.21-.66-.21-1.03v-5.23c0-.36.07-.71.21-1.03.14-.32.33-.6.56-.84.24-.24.52-.43.84-.57.32-.14.67-.21,1.03-.21h.69c.36,0,.71.07,1.03.21.32.14.6.33.84.57.24.24.43.52.56.84.14.32.21.67.21,1.03v5.23c0,.36-.07.71-.21,1.03h0c-.14.32-.33.6-.57.84-.24.24-.52.43-.84.57-.32.14-.67.21-1.03.21Zm-.69-10c-.29,0-.57.06-.84.17-.26.11-.49.27-.68.46s-.35.42-.46.68c-.11.26-.17.54-.17.83v5.23c0,.29.06.58.17.83.11.26.27.49.46.68.19.2.42.35.69.46.26.11.54.17.83.17h.69c.29,0,.57-.06.83-.17.26-.11.49-.27.68-.46.19-.19.35-.42.46-.68h0c.11-.26.17-.54.17-.83v-5.23c0-.29-.06-.57-.17-.83-.11-.26-.27-.49-.46-.68-.19-.19-.42-.35-.68-.46-.26-.11-.54-.17-.83-.17h-.69Zm.65,9.17h-.61c-.25,0-.49-.05-.71-.14-.21-.09-.41-.22-.57-.39-.17-.17-.3-.36-.39-.57-.09-.22-.14-.45-.14-.71v-5.23c0-.25.05-.49.14-.71.09-.21.22-.41.39-.57.16-.16.36-.29.57-.38.22-.09.46-.14.71-.14h.61c.25,0,.49.05.71.14.22.1.41.22.57.39.16.16.29.35.38.57.09.22.14.46.14.71v5.23c0,.25-.05.49-.14.71-.09.21-.22.41-.38.57-.16.17-.36.3-.57.39-.22.09-.46.14-.71.14Zm-.61-8.34c-.19,0-.35.03-.51.1-.16.07-.3.16-.42.28-.12.12-.21.25-.28.41-.07.16-.1.33-.1.51v5.23c0,.18.03.35.1.51.07.16.16.3.28.42.12.12.26.21.42.28.16.07.32.1.51.1h.61c.18,0,.35-.03.51-.1.16-.07.3-.16.41-.28.12-.12.21-.26.28-.42.07-.15.1-.33.1-.51v-5.23c0-.18-.03-.35-.1-.51-.07-.16-.16-.29-.28-.42-.12-.12-.25-.21-.41-.28-.16-.07-.32-.1-.51-.1h-.61Z" fill="#85b73c"></path></g><g><path d="m22.68,59.52v-6.67l-.06.41-2.26,6.26h-.46l-2.28-6.26-.05-.41v6.67h-.88v-9.73h.45l2.95,7.98.03.36.03-.36,2.94-7.98h.46v9.73h-.88Z" fill="#85b73c"></path><path d="m23.81,59.77h-1.38v-5.26l-1.9,5.26h-.81l-1.91-5.24v5.24h-1.38v-10.23h.88l2.8,7.58,2.8-7.58h.89v10.23Zm-.88-.5h.38v-9.23h-.04l-2.87,7.78-.02.33h-.5l-.02-.33-2.91-7.78v9.23h.38v-6.42l.5-.03.05.41,2.21,6.04h.11l2.2-6.09.05-.36.5.04v6.42Z" fill="#85b73c"></path></g><g><path d="m31.62,54.32c-.12.29-.3.54-.51.76-.22.22-.47.39-.76.51-.29.12-.6.19-.93.19h-2.21v3.74h-.88v-9.73h3.08c.33,0,.64.06.93.19.29.12.55.3.76.51.22.22.39.47.51.76s.19.6.19.93v1.21c0,.33-.06.64-.19.93Zm-.69-2.14c0-.22-.04-.42-.12-.61-.08-.19-.19-.35-.34-.5-.14-.14-.31-.25-.5-.34-.19-.08-.39-.12-.61-.12h-2.16v4.32h2.16c.22,0,.42-.04.61-.12.19-.08.35-.19.5-.33.14-.14.25-.3.34-.49.08-.19.12-.39.12-.61v-1.21Z" fill="#85b73c"></path><path d="m27.46,59.77h-1.38v-10.23h3.33c.36,0,.71.07,1.03.21.32.14.61.33.84.57.24.24.43.52.57.84.14.32.21.67.21,1.03v1.21c0,.36-.07.71-.21,1.03h0c-.14.32-.33.6-.57.84-.24.24-.52.43-.84.57-.33.14-.67.21-1.03.21h-1.96v3.74Zm-.88-.5h.38v-3.74h2.46c.29,0,.57-.06.84-.17.26-.11.49-.27.68-.46.19-.19.35-.42.46-.68.11-.26.17-.54.17-.83v-1.21c0-.29-.06-.58-.17-.83-.11-.26-.27-.49-.46-.68s-.42-.35-.69-.46c-.26-.11-.54-.17-.83-.17h-2.83v9.23Zm2.79-4.07h-2.42v-4.82h2.42c.25,0,.49.05.71.14.22.09.41.22.57.39s.29.36.39.57c.09.22.14.46.14.71v1.21c0,.25-.05.49-.14.71-.09.22-.23.41-.39.57-.16.16-.35.29-.57.38-.22.09-.46.14-.71.14Zm-1.92-.5h1.92c.18,0,.35-.03.51-.1.16-.07.3-.16.42-.28.12-.12.21-.26.28-.41.07-.16.1-.33.1-.51v-1.21c0-.18-.03-.35-.1-.51-.07-.16-.16-.3-.28-.42-.12-.12-.26-.21-.42-.28-.16-.07-.32-.1-.51-.1h-1.92v3.82Z" fill="#85b73c"></path></g><g><path d="m37.68,57.26h-3.08l-.64,2.27h-.91l2.85-9.73h.46l2.86,9.73h-.9l-.64-2.27Zm-2.84-.83h2.61l-1.28-4.49-.03-.36-.03.36-1.28,4.49Z" fill="#85b73c"></path><path d="m39.56,59.77h-1.43l-.64-2.27h-2.7l-.64,2.27h-1.43l3-10.23h.84l3.01,10.23Zm-1.05-.5h.38l-2.72-9.23h-.09l-2.7,9.23h.39l.64-2.27h3.46l.64,2.27Zm-.73-2.6h-3.27l1.37-4.8.02-.31h.5l.03.36,1.36,4.75Zm-2.61-.5h1.95l-.98-3.43-.97,3.43Z" fill="#85b73c"></path></g><g><path d="m45.61,59.52l-2.64-4.15h-1.2v4.15h-.88v-9.73h3.09c.33,0,.64.06.93.19.29.12.54.3.76.51.22.22.39.47.51.76s.19.6.19.93v.79c0,.33-.06.64-.19.93s-.3.55-.51.76c-.22.22-.47.39-.76.51-.29.12-.6.19-.93.19l2.64,4.15h-1.01Zm-.12-7.34c0-.22-.04-.42-.12-.61s-.19-.35-.33-.5c-.14-.14-.3-.25-.49-.34-.19-.08-.39-.12-.61-.12h-2.17v3.91h2.17c.22,0,.42-.04.61-.12.19-.08.35-.19.49-.34.14-.14.25-.31.33-.5s.12-.39.12-.61v-.79Z" fill="#85b73c"></path><path d="m47.08,59.77h-1.6l-2.64-4.15h-.81v4.15h-1.38v-10.23h3.34c.36,0,.71.07,1.03.21.32.14.6.33.84.57.24.24.43.52.57.84.14.32.21.67.21,1.03v.79c0,.36-.07.71-.21,1.03-.14.32-.33.6-.57.84-.24.24-.52.43-.84.56-.19.08-.39.14-.59.17l2.66,4.19Zm-1.33-.5h.42l-2.64-4.15h.46c.3,0,.58-.06.83-.17.26-.11.49-.27.68-.46.19-.19.35-.42.46-.68.11-.26.17-.54.17-.84v-.79c0-.29-.06-.58-.17-.83-.11-.26-.27-.49-.46-.68s-.42-.35-.68-.46c-.26-.11-.54-.17-.83-.17h-2.84v9.23h.38v-4.15h1.59l2.64,4.15Zm-1.81-4.49h-2.42v-4.41h2.42c.25,0,.49.05.71.14.21.09.41.22.57.39.16.17.29.36.38.57.09.22.14.46.14.71v.79c0,.25-.05.49-.14.71-.09.21-.22.41-.38.57s-.35.29-.57.39c-.22.09-.46.14-.71.14Zm-1.92-.5h1.92c.18,0,.35-.03.51-.1.16-.07.3-.16.41-.28.12-.12.21-.26.28-.42.07-.16.1-.33.1-.51v-.79c0-.18-.03-.35-.1-.51-.07-.16-.16-.3-.28-.42-.12-.12-.26-.21-.41-.28-.16-.07-.32-.1-.51-.1h-1.92v3.41Z" fill="#85b73c"></path></g><g><path d="m51.21,50.63v8.9h-.88v-8.9h-2.32v-.83h5.52v.83h-2.32Z" fill="#85b73c"></path><path d="m51.46,59.77h-1.38v-8.9h-2.32v-1.33h6.02v1.33h-2.32v8.9Zm-.88-.5h.38v-8.9h2.32v-.33h-5.02v.33h2.32v8.9Z" fill="#85b73c"></path></g><g><path d="m55.47,59.52v-9.73h.88v9.73h-.88Z" fill="#85b73c"></path><path d="m56.6,59.77h-1.38v-10.23h1.38v10.23Zm-.88-.5h.38v-9.23h-.38v9.23Z" fill="#85b73c"></path></g><g><path d="m58.99,59.52v-9.73h.88v8.9h3.73v.83h-4.6Z" fill="#85b73c"></path><path d="m63.84,59.77h-5.1v-10.23h1.38v8.9h3.73v1.33Zm-4.6-.5h4.1v-.33h-3.73v-8.9h-.38v9.23Z" fill="#85b73c"></path></g><g><path d="m70.14,59.52v-4.45h-3.73v4.45h-.88v-9.73h.88v4.45h3.73v-4.45h.88v9.73h-.88Z" fill="#85b73c"></path><path d="m71.26,59.77h-1.38v-4.44h-3.23v4.44h-1.38v-10.23h1.38v4.45h3.23v-4.45h1.38v10.23Zm-.88-.5h.38v-9.23h-.38v4.45h-4.23v-4.45h-.38v9.23h.38v-4.44h4.23v4.44Z" fill="#85b73c"></path></g><g><path d="m73.79,59.52v-9.73h5.48v.83h-4.6v3.62h3.73v.83h-3.73v3.61h4.6v.83h-5.48Z" fill="#85b73c"></path><path d="m79.52,59.77h-5.98v-10.23h5.98v1.33h-4.6v3.12h3.73v1.33h-3.73v3.11h4.6v1.33Zm-5.48-.5h4.98v-.33h-4.6v-4.11h3.73v-.33h-3.73v-4.12h4.6v-.33h-4.98v9.23Z" fill="#85b73c"></path></g></g></svg> 