<?xml version="1.0" encoding="UTF-8"?> <svg xmlns="http://www.w3.org/2000/svg" id="Layer_1" width="56" height="40" viewBox="0 0 56 40"><g id="dbKXmE.tif"><path d="m32.91,39.14h-8.41c-.09,0-.19-.03-.28-.03-.81-.02-1.63-.03-2.44-.05-2.1-.04-4.21-.11-6.31-.22-1.2-.07-2.39-.14-3.59-.22-1.33-.09-2.65-.21-3.96-.41-.46-.07-.92-.14-1.37-.26-2.36-.62-4.25-2.56-4.82-4.93-.15-.61-.26-1.22-.37-1.83-.21-1.2-.34-2.41-.45-3.63-.12-1.28-.2-2.56-.24-3.84-.04-1.21-.05-2.42-.06-3.64-.01-1.82.04-3.64.15-5.46.08-1.29.18-2.58.33-3.86.13-1.16.3-2.32.53-3.46.27-1.33.87-2.49,1.83-3.45,1.07-1.08,2.36-1.73,3.87-1.96,1.26-.19,2.53-.36,3.8-.46,1.24-.1,2.47-.19,3.71-.26,1.34-.08,2.68-.13,4.02-.17,2.5-.08,5.01-.12,7.51-.13,4.12-.01,8.23.04,12.34.2,1.51.06,3.02.14,4.52.22,1.38.07,2.77.18,4.14.35.74.09,1.47.2,2.17.44,2.39.79,3.93,2.39,4.62,4.8.18.64.29,1.3.41,1.96.27,1.5.44,3.01.56,4.53.11,1.33.19,2.66.19,4,0,.14.02.29.03.43v4.05c-.01.11-.03.21-.03.32-.01.46,0,.91-.03,1.37-.06,1.04-.12,2.09-.2,3.13-.05.68-.11,1.36-.19,2.04-.13.99-.27,1.98-.42,2.97-.08.53-.18,1.06-.32,1.58-.27,1.01-.77,1.91-1.48,2.68-1.09,1.21-2.45,1.93-4.05,2.21-.87.15-1.75.28-2.63.36-.95.09-1.91.18-2.86.24-.89.06-1.78.11-2.67.15-1.33.06-2.67.11-4,.15-1.1.03-2.19.04-3.29.07-.1,0-.2.02-.3.03Zm-10.2-10.95c4.78-2.74,9.51-5.46,14.28-8.19-.11-.06-.18-.11-.25-.15-3.37-1.93-6.74-3.86-10.1-5.79-1.22-.7-2.44-1.4-3.66-2.1-.08-.04-.15-.12-.26-.11v16.34Z" fill="#85b73c"></path></g></svg> 