<?xml version="1.0" encoding="UTF-8"?> <svg xmlns="http://www.w3.org/2000/svg" id="Layer_1" width="40" height="40" viewBox="0 0 40 40"><g id="wBUGuZ.tif"><path d="m19.46.49c.37,0,.74,0,1.11,0,.09.01.19.03.28.04.82.02,1.63.11,2.44.25,2.23.38,4.33,1.1,6.3,2.22,4.39,2.5,7.41,6.14,9.06,10.92.53,1.53.84,3.11.95,4.72.04.55.03,1.11.04,1.67.02,1.08-.08,2.16-.27,3.22-.46,2.63-1.41,5.07-2.87,7.3-1.99,3.05-4.62,5.37-7.89,6.97-1.66.82-3.41,1.37-5.24,1.69-.26.04-.26.04-.26-.21,0-.01,0-.03,0-.04,0-4.37,0-8.74,0-13.12,0-.27-.05-.3.31-.3,1.32,0,2.63,0,3.95,0,.06,0,.13,0,.19,0,.09,0,.13-.04.14-.12.02-.14.04-.28.06-.42.25-1.62.5-3.25.75-4.87.04-.28.04-.28-.25-.28-.06,0-.12,0-.17,0-1.58,0-3.16,0-4.74,0-.24,0-.24,0-.24-.24,0-1.15,0-2.3,0-3.45,0-.27.03-.55.08-.82.22-1.09.87-1.79,1.95-2.08.4-.11.81-.14,1.22-.14.72,0,1.43,0,2.15,0,.27,0,.27,0,.27-.27,0-1.43,0-2.86,0-4.3,0-.26.05-.27-.27-.32-1.13-.17-2.26-.28-3.4-.33-1.07-.05-2.13,0-3.17.3-1.26.35-2.36.97-3.23,1.96-.71.81-1.17,1.75-1.44,2.79-.23.86-.32,1.73-.31,2.62,0,1.34,0,2.67,0,4.01q0,.28-.28.29c-1.47,0-2.94,0-4.41,0-.3,0-.29-.02-.29.29,0,1.7,0,3.4,0,5.1,0,.31-.02.3.29.3,1.46,0,2.91,0,4.37,0,.35,0,.32,0,.32.32,0,4.36,0,8.72,0,13.08,0,.04,0,.08,0,.12,0,.16-.02.18-.18.16-.15-.02-.29-.05-.43-.08-2.52-.48-4.85-1.42-7-2.81-2.75-1.79-4.93-4.13-6.52-7.01-1.42-2.58-2.22-5.34-2.39-8.27-.01-.18-.05-.36-.07-.55,0-.43,0-.87,0-1.3.02-.17.06-.34.07-.51.04-.81.14-1.62.29-2.41.55-2.94,1.7-5.62,3.47-8.02,2.52-3.4,5.79-5.77,9.81-7.09,1.69-.55,3.43-.86,5.21-.92.08,0,.16-.02.24-.04Z" fill="#85b73c"></path></g></svg> 