<?xml version="1.0" encoding="UTF-8"?> <svg xmlns="http://www.w3.org/2000/svg" xmlns:xlink="http://www.w3.org/1999/xlink" width="58" height="58" viewBox="0 0 58 58"><defs><clipPath id="clippath"><polygon points="198.24 255.65 -1252.12 256.53 -1252.95 144.01 197.41 143.13 198.24 255.65" fill="none"></polygon></clipPath><filter id="drop-shadow-2" filterUnits="userSpaceOnUse"><feOffset dx="5" dy="10"></feOffset><feGaussianBlur result="blur" stdDeviation="7"></feGaussianBlur><feFlood flood-color="#000" flood-opacity=".4"></feFlood><feComposite in2="blur" operator="in"></feComposite><feComposite in="SourceGraphic"></feComposite></filter><linearGradient id="Degradado_sin_nombre_13" x1="8236.87" y1="-972.87" x2="7900.65" y2="-688.89" gradientTransform="translate(7941.92 -660.28) rotate(-180)" gradientUnits="userSpaceOnUse"><stop offset="0" stop-color="#b970e4"></stop><stop offset=".2" stop-color="#b267dc"></stop><stop offset=".52" stop-color="#a251c6"></stop><stop offset=".91" stop-color="#872da4"></stop><stop offset="1" stop-color="#80249b"></stop></linearGradient><linearGradient id="Degradado_sin_nombre_13-2" x1="8361.19" y1="-806" x2="7782.44" y2="-926.7" xlink:href="#Degradado_sin_nombre_13"></linearGradient><filter id="drop-shadow-5" filterUnits="userSpaceOnUse"><feOffset dx="5" dy="10"></feOffset><feGaussianBlur result="blur-2" stdDeviation="7"></feGaussianBlur><feFlood flood-color="#000" flood-opacity=".4"></feFlood><feComposite in2="blur-2" operator="in"></feComposite><feComposite in="SourceGraphic"></feComposite></filter><linearGradient id="Degradado_sin_nombre_13-3" x1="584.21" y1="1925.52" x2="310.27" y2="2293.9" gradientTransform="translate(407.22 -1907.07) rotate(23.94)" xlink:href="#Degradado_sin_nombre_13"></linearGradient><linearGradient id="Degradado_sin_nombre_13-4" x1="245.85" y1="1921.44" x2="900.52" y2="2170.16" gradientTransform="translate(407.22 -1907.07) rotate(23.94)" xlink:href="#Degradado_sin_nombre_13"></linearGradient></defs><g><g id="Layer_1"><g><g clip-path="url(#clippath)"><g filter="url(#drop-shadow-2)"><path d="m-577.9,354.64c10.46-4.88,19.41-12.78,25.9-22.88,10.87-16.93,17.54-38.25,39.46-43.39,11.09-2.6,22.66-1.37,33.93-1.87,9.92-.45,19.48-2.4,28.13-7.45,16.68-9.73,27.42-27.32,34.4-44.82,8.8-22.07,12.58-46,23.88-67.09,10.55-19.7,28.1-35,48.74-43.45,41.13-16.85,89.45-2.83,117.28,31.35,27.16,33.37,34.61,84.68,76.63,104.81,18.39,8.81,37.44,5.45,55.89-1.24,17.6-6.39,36.17-16.67,55.48-15.18,11.01.85,19.48,6.59,27.75,13.47,7.04,5.87,14.24,11.67,23.49,13.42,16.5,3.12,32.8-4.85,47.88-10.38,16.26-5.95,36.22-10.98,48.85,4.75,17.18,21.41,4.72,50.95-5,72.56-8.02,17.84-15.98,36.42-14.15,56.46,1.66,18.17,13.13,32.94,31.48,36.48,19.64,3.79,40.48-3.39,58.01-11.78,15.81-7.57,30.37-17.78,42.94-30.01V37.67h-800.97v316.97Z" fill="url(#Degradado_sin_nombre_13)"></path><path d="m133.33,430.24c-3.8,0-7.51-.34-11.02-1.02-17.22-3.32-28.98-16.96-30.68-35.59-1.87-20.52,6.97-40.17,14.07-55.96,5.23-11.62,10.51-24.02,12.66-36.6,2.59-15.14.04-27.24-7.79-37-5.8-7.22-13.76-10.88-23.68-10.88-9.22,0-18.89,3.11-26.29,5.82-2.28.83-4.63,1.74-6.9,2.62-10.7,4.13-21.76,8.4-32.97,8.4-2.56,0-5.08-.23-7.48-.68-9.29-1.76-16.6-7.84-23.04-13.21-7.92-6.59-16.82-12.82-28.31-13.7-1.28-.1-2.59-.15-3.9-.15-13.82,0-27.14,5.43-40.02,10.68-4.13,1.68-8.04,3.28-11.97,4.71-12.22,4.44-22.27,6.5-31.63,6.5-8.47,0-16.15-1.71-23.49-5.22-26.42-12.66-39.29-38.35-51.74-63.19-7.18-14.32-14.6-29.14-24.55-41.36-19.8-24.33-50.27-38.85-81.49-38.85-12.84,0-25.27,2.43-36.95,7.21-21.25,8.7-38.73,24.3-49.24,43.9-6.83,12.75-10.99,26.71-15.01,40.22-2.66,8.94-5.42,18.19-8.92,26.97-8.45,21.19-19.88,36.11-33.98,44.33-7.58,4.43-16.64,6.82-27.67,7.31-2.76.12-5.51.14-7.84.14-.91,0-1.82,0-2.72,0-.91,0-1.82,0-2.73,0-6.71,0-13.84.14-20.81,1.77-17.64,4.13-25.69,18.58-33.48,32.54-2.1,3.77-4.27,7.66-6.59,11.28-6.08,9.46-14.37,16.98-24.06,21.83V38.67H222.08v349.32c-12.53,12.14-26.78,22.07-42.37,29.53-17.89,8.56-33.06,12.73-46.38,12.72m0,1c16.18,0,32.57-6.01,46.81-12.82,15.81-7.57,30.37-17.78,42.94-30.01V37.67h-800.97v316.97c10.46-4.88,19.41-12.78,25.9-22.88,10.87-16.93,17.54-38.25,39.46-43.39,6.74-1.58,13.66-1.74,20.59-1.74,1.82,0,3.64.01,5.46.01,2.64,0,5.27-.02,7.89-.14,9.92-.45,19.48-2.4,28.13-7.45,16.68-9.73,27.42-27.32,34.4-44.82,8.8-22.07,12.58-46,23.88-67.09,10.55-19.7,28.1-35,48.74-43.45,11.81-4.84,24.23-7.13,36.57-7.13,30.64,0,60.88,14.12,80.71,38.49,27.16,33.37,34.61,84.68,76.63,104.81,7.88,3.78,15.89,5.32,23.92,5.32,10.7,0,21.43-2.74,31.97-6.56,16.44-5.97,33.71-15.33,51.65-15.33,1.27,0,2.55.05,3.82.15,11.01.85,19.48,6.59,27.75,13.47,7.04,5.87,14.24,11.67,23.49,13.42,2.56.48,5.12.7,7.67.7,13.86,0,27.47-6.41,40.21-11.08,8.18-2.99,17.3-5.76,25.95-5.76s16.63,2.69,22.9,10.51c17.18,21.41,4.72,50.95-5,72.56-8.02,17.84-15.98,36.42-14.15,56.46,1.66,18.17,13.13,32.94,31.48,36.48,3.7.71,7.45,1.04,11.21,1.04h0Z" fill="url(#Degradado_sin_nombre_13-2)"></path></g><g filter="url(#drop-shadow-5)"><path d="m270.85,228.71c2.1-25.48-13.12-48.13-30.94-64.82-21.56-20.2-48.04-34.12-74.68-46.38-6.65-3.06-13.34-6.03-20.03-9-.42-.19-.81-.17-1.13-.03-5.93-3.48-12.06-6.62-18.37-9.38-8.89-3.88-18.12-6.87-27.37-9.77-18.32-5.75-36.42-12.09-54.39-18.84-17.93-6.74-35.76-13.74-53.72-20.4-17.87-6.63-35.88-12.91-54.18-18.24-9.08-2.64-18.22-5.07-27.45-7.13-8.49-1.9-17.14-3.35-25.88-3.17-2.2.05-4.4.21-6.58.49-.36.05-.64.19-.85.39-2.88.92-5.27,3.1-6.78,5.88-2.48,4.58-1.74,9.87.8,14.25,3.19,5.49,8.61,8.99,14.04,11.96,6.22,3.41,12.24,6.68,17.1,11.97,18.2,19.81,17.23,48.8,18.2,73.85.52,13.27,1.77,26.59,6.32,39.16,4.16,11.5,10.84,22.28,20.19,30.27,21.08,18,51.1,17.25,76.41,10.42,27.26-7.36,52.55-21.38,80.71-25.48,13.25-1.93,27.08-1.65,39.78,2.96,7.07,2.57,13.42,6.52,17.96,12.61,4.01,5.39,6.6,11.65,9.22,17.79,9.7,22.73,26.89,48.08,54.56,47.77,11.49-.13,22.79-4.99,31.13-12.82,9.44-8.85,14.88-21.49,15.93-34.3Z" fill="url(#Degradado_sin_nombre_13-3)"></path><path d="m126.3,100.45c5.79,2.57,11.6,5.56,17.27,8.88l.43.25.46-.2c.07-.03.16-.05.33.02l2.68,1.19c5.56,2.47,11.51,5.12,17.34,7.81,25.64,11.81,52.4,25.58,74.41,46.2,15.2,14.25,32.86,36.91,30.63,64.01-1.08,13.08-6.77,25.35-15.62,33.65-8.37,7.85-19.47,12.42-30.46,12.55-6.04.07-11.88-1.13-17.36-3.57-18.01-7.99-29.66-28.12-36.26-43.59l-.35-.81c-2.5-5.87-5.08-11.93-8.99-17.18-3.63-4.88-8.69-8.78-15.05-11.6-1.08-.48-2.21-.93-3.37-1.35-11.57-4.2-25.11-5.21-40.26-3.01-16.95,2.47-33.08,8.59-48.68,14.5-10.44,3.96-21.23,8.05-32.15,11-29.95,8.09-50,3.68-61.54-1.45-5.1-2.27-9.8-5.21-13.96-8.76-8.62-7.36-15.5-17.68-19.9-29.84-4.69-12.95-5.79-26.91-6.26-38.86-.09-2.4-.17-4.84-.24-7.3-.71-22.97-1.52-49.01-18.22-67.19-4.92-5.36-10.88-8.63-17.19-12.08l-.16-.09c-5.28-2.89-10.58-6.29-13.66-11.59-2.63-4.52-2.91-9.35-.79-13.27,1.45-2.68,3.65-4.6,6.2-5.4l.22-.07.17-.16c.06-.06.15-.1.27-.11,2.17-.27,4.35-.43,6.48-.48,9.36-.2,18.62,1.58,25.64,3.14,8.5,1.9,17.46,4.22,27.39,7.12,15.89,4.63,33.09,10.42,54.11,18.21,10.09,3.74,20.3,7.66,30.18,11.44,7.71,2.95,15.67,6.01,23.53,8.96,19.21,7.22,37.02,13.39,54.45,18.86,9.3,2.92,18.38,5.86,27.27,9.74.33.14.66.29,1,.44m.41-.91c-.33-.15-.67-.29-1-.44-8.89-3.88-18.12-6.87-27.37-9.77-18.32-5.75-36.42-12.09-54.39-18.84-17.93-6.74-35.76-13.74-53.72-20.4-17.87-6.63-35.88-12.91-54.18-18.24-9.08-2.64-18.22-5.07-27.45-7.13-8.49-1.9-17.14-3.35-25.88-3.17-2.2.05-4.4.21-6.58.49-.36.05-.64.19-.85.39-2.88.92-5.27,3.1-6.78,5.88-2.48,4.58-1.74,9.87.8,14.25,3.19,5.49,8.61,8.99,14.04,11.96,6.22,3.41,12.24,6.68,17.1,11.97,18.2,19.81,17.23,48.8,18.2,73.85.52,13.27,1.77,26.59,6.32,39.16,4.16,11.5,10.84,22.28,20.19,30.26,4.39,3.75,9.16,6.68,14.2,8.92,19.17,8.51,42.16,6.91,62.21,1.5,27.26-7.36,52.55-21.38,80.71-25.48,13.25-1.93,27.08-1.65,39.78,2.96,1.12.41,2.22.85,3.3,1.33,5.74,2.55,10.84,6.16,14.66,11.28,4.01,5.39,6.6,11.65,9.22,17.79,7.43,17.4,19.24,36.33,36.78,44.12,5.38,2.39,11.29,3.73,17.78,3.65,11.49-.13,22.79-4.99,31.13-12.82,9.44-8.85,14.88-21.49,15.93-34.3,2.1-25.48-13.12-48.13-30.94-64.82-21.56-20.2-48.04-34.12-74.68-46.38-5.76-2.65-11.55-5.24-17.35-7.81-.89-.4-1.79-.79-2.68-1.19-.42-.19-.81-.17-1.13-.03-5.62-3.3-11.41-6.29-17.37-8.93h0Z" fill="url(#Degradado_sin_nombre_13-4)"></path></g></g></g><g><path d="m57.98,29c0,16-12.97,28.98-28.98,28.98S.02,45,.02,29,13,.02,29,.02s28.98,12.97,28.98,28.98" fill="#8abb3c"></path><g><polygon points="8.86 14.77 8.86 17.35 11.4 17.35 11.4 31.92 9.1 43.23 15.61 43.23 17.9 31.86 31.32 31.86 33.41 43.23 39.91 43.23 37.83 31.86 46.65 31.92 46.65 36.5 44.87 36.5 44.87 34.2 42.47 34.2 42.47 39.01 49.25 39 49.25 14.77 8.86 14.77" fill="#6b7b80"></polygon><path d="m46.01,28.12h0c-.45.06-.81.53-.81,1.1,0,.61.4,1.1.9,1.1h0c2.46,0,4.9-1.1,4.9-2.2h-4.99Z" fill="#fff"></path><path d="m44.7,23.58c.2.83-.53,1.56-1.36,1.36-.39-.09-.71-.41-.81-.81-.2-.83.53-1.56,1.36-1.36.39.09.71.41.8.81" fill="#fff"></path><path d="m37.98,17.07v12.15c-2.75,0-4.98-2.72-4.98-6.07s2.23-6.07,4.98-6.07" fill="#fff"></path></g></g></g></g></svg> 